# xmcd
# Track frame offsets:
# 150
# 20095
# 44360
# 66473
# 83750
# 99961
# 119899
# 139485
# 159115
# 181125
#
# Disc length: 2749 seconds
# Revision: 0
# Processed by: cddbd v1.5.2PL0 Copyright (c) Steve Scherf et al.
# Submitted via: VisiTrax 2.10.3.257 - For more info visit www.synapsa.com
#
DISCID=880abb0a
DTITLE=Whitney Houston - Whitney
DYEAR=1987
DGENRE=Blues
TTITLE0=You give good love
TTITLE1=Thinkin' abou you
TTITLE2=Someone for me
TTITLE3=Saving all my love for you
TTITLE4=Nobody loves me like you do
TTITLE5=How will I know
TTITLE6=All at once
TTITLE7=Take good care of my heart
TTITLE8=Greatest love of all
TTITLE9=Hold me
EXTD=Da LP
EXTT0=
EXTT1=
EXTT2=
EXTT3=
EXTT4=
EXTT5=
EXTT6=
EXTT7=
EXTT8=
EXTT9=
PLAYORDER=
